#!OML:ASF E:\Steps\Project 1\Capture day 1\Session 2\Subject.ASF
:FULLY-SPECIFIED
:DEGREES
204
root 4.91265 13.5907 15.7654 -160.869 -5.0823 187.281
lowerback -8.20531 -4.47133 -7.44437
upperback 4.08336 -5.31764 1.75901
thorax 9.88737 -3.13832 5.15044
lowerneck -1.25597 -7.65114 0.618896
upperneck 8.9067 -10.4636 4.76525
head 3.34288 -4.91256 1.09138
rclavicle 1.35174e-014 6.36111e-015
rhumerus -52.7185 -5.30977 -75.2501
rradius 38.2132
rwrist -1.35886
rhand -6.85325 -47.1997
rfingers 7.12502
rthumb 19.012 -76.2906
lclavicle 1.35174e-014 6.36111e-015
lhumerus -28.9473 -13.4486 68.9426
lradius 53.5941
lwrist 9.66716
lhand -24.8371 -13.0666
lfingers 7.12502
lthumb 1.66893 16.9066
rfemur -79.5524 -26.717 7.18563
rtibia 59.7189
rfoot -4.27697 -5.17233
rtoes -34.797
lfemur -8.24155 -14.1457 8.62257
ltibia 39.9457
lfoot -34.3193 14.5343
ltoes -61.4367
205
root 5.00773 13.5793 15.7082 -160.245 -4.81913 186.752
lowerback -8.1134 -4.48881 -7.42347
upperback 4.22364 -5.36312 1.81718
thorax 10.0007 -3.17319 5.19333
lowerneck -1.13028 -7.53055 0.776419
upperneck 8.4907 -10.2678 4.29556
head 3.1288 -4.85147 0.933919
rclavicle -1.19271e-014 2.70347e-014
rhumerus -51.6709 -4.04447 -75.6373
rradius 38.4787
rwrist -1.73344
rhand -6.66716 -46.47
rfingers 7.12502
rthumb 19.1909 -75.5431
lclavicle -1.19271e-014 2.70347e-014
lhumerus -28.3536 -13.4181 69.2094
lradius 53.8356
lwrist 10.1699
lhand -24.545 -12.9942
lfingers 7.12502
lthumb 1.95105 16.9766
rfemur -81.1147 -26.9016 7.60194
rtibia 60.958
rfoot -4.67254 -5.09683
rtoes -35.3653
lfemur -8.67263 -14.1951 8.38299
ltibia 40.1228
lfoot -34.2429 12.5076
ltoes -59.245
206
root 5.10324 13.5739 15.6571 -159.527 -4.48709 186.056
lowerback -7.68754 -4.50832 -7.50278
upperback 4.17291 -5.41459 1.80134
thorax 9.70765 -3.19491 5.24103
lowerneck -1.247 -7.3928 0.785611
upperneck 8.26131 -10.0772 4.11109
head 3.05458 -4.77436 0.879219
rclavicle 4.77083e-014 -1.11319e-014
rhumerus -50.7759 -2.67474 -75.9782
rradius 38.7501
rwrist -2.40738
rhand -6.67064 -46.1672
rfingers 7.12502
rthumb 19.1876 -75.2407
lclavicle 4.77083e-014 -1.11319e-014
lhumerus -27.8649 -13.3935 69.4881
lradius 54.0292
lwrist 10.4401
lhand -24.3046 -12.973
lfingers 7.12502
lthumb 2.1832 16.9955
rfemur -82.8868 -27.1203 7.93657
rtibia 62.2223
rfoot -5.0108 -5.12935
rtoes -36.0348
lfemur -9.26366 -14.189 7.95575
ltibia 40.4582
lfoot -34.0147 10.3369
ltoes -56.0807
207
root 5.19369 13.5695 15.6078 -158.832 -4.0814 185.301
lowerback -6.9169 -4.4552 -7.47425
upperback 3.96026 -5.3947 1.66455
thorax 8.99634 -3.15166 5.14229
lowerneck -1.47748 -7.23875 0.682923
upperneck 8.15611 -9.89136 4.33203
head 3.07759 -4.67917 0.965415
rclavicle -2.78299e-014 -3.97569e-014
rhumerus -49.9815 -1.68595 -76.171
rradius 38.8387
rwrist -2.90855
rhand -6.81846 -46.1686
rfingers 7.12502
rthumb 19.0454 -75.2561
lclavicle -2.78299e-014 -3.97569e-014
lhumerus -27.5247 -13.5135 69.6942
lradius 54.2441
lwrist 10.4433
lhand -24.2715 -13.0879
lfingers 7.12502
lthumb 2.21517 16.8804
rfemur -84.5855 -27.2739 8.13565
rtibia 63.4237
rfoot -5.4137 -5.10347
rtoes -35.9911
lfemur -9.77441 -14.0659 7.38774
ltibia 40.6898
lfoot -33.2942 9.87325
ltoes -55.0926
208
root 5.28209 13.568 15.5615 -158.272 -3.7017 184.608
lowerback -6.56388 -4.36902 -7.37443
upperback 4.11139 -5.31529 1.51255
thorax 8.91442 -3.10979 4.95449
lowerneck -1.73263 -7.21558 0.626095
upperneck 7.76878 -9.8849 4.58954
head 3.01221 -4.68261 1.05314
rclavicle -1.03368e-014 -2.8625e-014
rhumerus -48.5182 -1.12606 -76.2703
rradius 38.7092
rwrist -3.0109
rhand -6.93667 -46.1841
rfingers 7.12502
rthumb 18.9317 -75.2828
lclavicle -1.03368e-014 -2.8625e-014
lhumerus -26.5703 -13.7975 69.7381
lradius 54.3681
lwrist 10.4763
lhand -24.6112 -13.4399
lfingers 7.12502
lthumb 1.88708 16.5315
rfemur -86.0014 -27.3569 8.26196
rtibia 64.4771
rfoot -5.93408 -5.04882
rtoes -35.2604
lfemur -10.1854 -14.0139 6.86825
ltibia 40.8398
lfoot -32.2123 9.92145
ltoes -54.6305
